<?xml version="1.0" encoding="UTF-8"?>
<svg id="Calque_1" data-name="Calque 1" xmlns="http://www.w3.org/2000/svg" viewBox="0 0 160.75 30.21">
  <defs>
    <style>
      .cls-1 {
        fill: #303e91;
      }

      .cls-2 {
        fill: #35b29b;
      }
    </style>
  </defs>
  <polygon class="cls-2" points="63.26 6.35 63.26 4.8 78.93 0 94.54 4.8 94.54 6.35 63.26 6.35"/>
  <path class="cls-1" d="M14.87,20.15c-.52-.5-1.17-.93-1.94-1.29-.77-.36-1.65-.65-2.65-.87l-1.74-.4c-.46-.1-.88-.21-1.24-.35-.37-.13-.68-.28-.94-.46-.26-.17-.46-.38-.59-.61s-.2-.5-.18-.8c0-.37,.12-.7,.33-.98,.21-.29,.53-.51,.95-.68,.42-.17,.95-.25,1.58-.25,.95,0,1.69,.2,2.21,.61s.81,.97,.87,1.69h4.68c-.01-1.26-.34-2.36-.98-3.32-.64-.95-1.54-1.7-2.69-2.23s-2.52-.79-4.08-.79-2.9,.26-4.1,.79c-1.2,.53-2.14,1.26-2.82,2.2-.68,.94-1.01,2.04-1.01,3.29,0,1.53,.49,2.75,1.5,3.65,1.01,.9,2.39,1.55,4.14,1.95l2.11,.49c.74,.17,1.34,.36,1.82,.56,.48,.2,.83,.44,1.06,.71,.23,.27,.35,.6,.36,.98,0,.41-.13,.77-.38,1.09-.25,.32-.61,.56-1.07,.74-.46,.18-1.03,.27-1.68,.27-.72,0-1.35-.11-1.89-.34-.54-.22-.97-.55-1.28-.99s-.48-.98-.52-1.63H0c.02,1.58,.38,2.89,1.08,3.92,.7,1.03,1.68,1.8,2.93,2.31,1.26,.51,2.73,.76,4.42,.76s3.13-.24,4.32-.73c1.2-.49,2.11-1.19,2.75-2.1s.96-2.01,.97-3.29c0-.81-.14-1.54-.42-2.19-.27-.65-.67-1.23-1.19-1.73Z"/>
  <rect class="cls-1" x="18.95" y="9.71" width="4.89" height="20.23"/>
  <polygon class="cls-1" points="38.33 22.23 38.09 22.23 32.96 9.71 26.9 9.71 26.9 29.93 31.66 29.93 31.66 17.44 31.83 17.44 36.69 29.8 39.73 29.8 44.59 17.51 44.76 17.51 44.76 29.93 49.52 29.93 49.52 9.71 43.47 9.71 38.33 22.23"/>
  <path class="cls-1" d="M115.01,22.44h4c-.02,.68-.17,1.29-.48,1.8-.32,.54-.79,.96-1.42,1.25-.62,.29-1.38,.44-2.28,.44-1.01,0-1.88-.24-2.59-.72-.71-.48-1.25-1.18-1.63-2.09s-.56-2.02-.56-3.32,.19-2.39,.58-3.29,.94-1.59,1.65-2.07c.71-.47,1.56-.71,2.54-.71,.49,0,.94,.06,1.34,.17s.77,.29,1.09,.51c.32,.22,.58,.5,.8,.81,.22,.32,.38,.69,.49,1.1h4.95c-.12-1.01-.42-1.93-.91-2.78s-1.12-1.57-1.9-2.18-1.68-1.09-2.69-1.42c-1.01-.33-2.1-.5-3.27-.5-1.35,0-2.61,.23-3.78,.69-1.17,.46-2.2,1.14-3.08,2.03s-1.58,1.99-2.07,3.27c-.49,1.29-.74,2.76-.74,4.42,0,2.13,.41,3.98,1.22,5.53s1.96,2.74,3.42,3.58c1.46,.84,3.16,1.25,5.09,1.25,1.74,0,3.28-.35,4.62-1.04,1.34-.69,2.39-1.68,3.16-2.97,.77-1.29,1.15-2.84,1.15-4.65v-2.68h-8.72v3.57Z"/>
  <path class="cls-1" d="M131.93,9.71l-6.83,20.23h5.25l1.33-4.25h6.99l1.33,4.25h5.25l-6.82-20.23h-6.51Zm.92,12.27l2.25-7.17h.16l2.25,7.17h-4.66Z"/>
  <polygon class="cls-1" points="152.33 25.96 152.33 9.71 147.44 9.71 147.44 29.93 160.75 29.93 160.75 25.96 152.33 25.96"/>
  <path class="cls-1" d="M92.98,11.88v1.8h9.18v-3.97h-7.64s-1.54,.9-1.54,2.17Z"/>
  <path class="cls-1" d="M92.98,21.34v.47h8.46v-3.98h-8.45v3.51h0Z"/>
  <path class="cls-1" d="M64.8,27.76v-5.08c-.04,.56-.19,1.06-.44,1.51-.31,.55-.74,.97-1.29,1.28s-1.19,.46-1.92,.46-1.37-.15-1.93-.46c-.55-.31-.98-.74-1.29-1.28-.31-.55-.46-1.17-.46-1.87V9.71h-4.89v13.05c0,1.51,.36,2.82,1.07,3.94s1.71,1.98,2.99,2.59c1.28,.61,2.79,.91,4.5,.91,.89,0,1.72-.09,2.5-.26h-.38s1.54-.9,1.54-2.17Z"/>
  <path class="cls-2" d="M69.72,21.34V11.88c0-1.27,1.54-2.17,1.54-2.17h-8s1.54,.9,1.54,2.17v6.43h0v9.46c0,1.27-1.54,2.17-1.54,2.17h8s-1.54-.9-1.54-2.17v-6.43h0Z"/>
  <path class="cls-2" d="M81.36,21.34h0V11.88c0-1.27,1.54-2.17,1.54-2.17h-8s1.54,.9,1.54,2.17v6.43h0v9.46c0,1.27-1.54,2.17-1.54,2.17h8s-1.54-.9-1.54-2.17v-6.43Z"/>
  <path class="cls-1" d="M94.52,29.93h7.64v-3.97h-9.18v1.8c0,1.27,1.54,2.17,1.54,2.17Z"/>
  <path class="cls-2" d="M93,27.76v-6.43h0V11.88c0-1.27,1.54-2.17,1.54-2.17h-8s1.51,.89,1.53,2.14v15.94c-.02,1.25-1.53,2.14-1.53,2.14h8s-1.54-.9-1.54-2.17Z"/>
</svg>